<svg id="Capa_1" data-name="Capa 1" xmlns="http://www.w3.org/2000/svg" viewBox="0 0 454.23 311.94"><path d="M967.29,414.61c2,0,29.29.16,44.53,3.71,28.72,6.67,54.21,21.39,77.49,39.34,3.83,2.95,8.34,10.08,7.13,13.21-1.58,4.08-8.27,7.76-13.27,8.58-6,1-12.65-.73-18.83-2.13-21.49-4.85-42.88-10.13-64.34-15.13-32.62-7.6-79.71-5.58-58.71,40.42-16-8-25.5-24.86-22.8-31.55.14-1.07.28-2.14.41-3.21l.24,3.73c-10.42,8-12.35,14.14-4.79,22.72,6,6.82,13.76,12.31,21.27,17.64,19.72,14,40,27.19,59.55,41.43,21.44,15.64,32.57,37,48.94,59.86a20.13,20.13,0,0,0,3.18,4.38c2.31,2.53,2-4,2.18-5.47,1.47-12.49-4.07-26-10.83-35.88-9.87-14.36-16.35-23.65-30.35-38.65-9.93-10.65-23.47-22.62-33-29l-8-6c-11-11-1-5,9,1,35.24,21.14,74.52,30,104.34,59.1,33.56,32.78,22.72,84.34-16.08,104.09-10.66,5.42-22.14,9.25-36.39,15.09,41.07,3,70.64,4.19,117.13,8.72,2,0,3,2,0,2.13-15,0-30-.14-44.93,0-100.84,1.09-201.67,2.35-302.5,3.2-9.9.09-20.34-.61-29.63-3.65-31-10.17-39-33.6-33.93-60.28,2.69-14,14.39-20.55,27-24.75,18.43-6.14,36.9-2.5,54.76,2.11,21.29,5.5,41.92,13.45,63.12,19.33,32.71,9.06,70.22,9.47,84.08,9.89,5.59.17,12,1,21,0h12c7.85.24,13-2,20.15-7.25s-1.39-11.4-5.73-15.71c-18.84-18.69-41.31-32-65-43.6-12.08-5.88-24.47-11.45-35.66-18.76-20.88-13.64-28.91-33.63-27.17-58.39,1.07-15.29,10.37-25.06,22.65-36.24-24.61,10.11-31.19,18.87-31,39.47,0,5.13,1.81,11.48,2.81,14.48h0c-1,0-9.63-9.37-14.83-15,3.46,22.76,16.77,39.11,29.81,55.53,3.51,4.43,8.06,8,11.75,12.33,4.15,4.86,7.87,10.1,11.78,15.18-6.43-2.41-13.12-4.28-19.22-7.32-21.1-10.5-43.58-24.46-54.29-45.7-15.53-30.82-13.74-58.39,9.72-79.94,29.59-27.19,89.28-33.06,105.28-33.06h10ZM863.82,671.1c-30-6.76-61.33-35.65-91.53-26.49-2.63.79-14.28,3.28-13,11,1,6,4,14,8,16a50.63,50.63,0,0,0,26.5,5.06C817.14,675,840.47,673,863.82,671.1Zm181-213.58c5.44.09,2.33-7.18,2-9.22a12.85,12.85,0,0,1-.18-3,1.7,1.7,0,0,0-2.14-1.75c-1.67.46-3.73.62-4.9,4.57C1039.08,450.08,1038.29,455.61,1044.85,457.52Zm12.44-8.91c0-3-2-4-4-5-3,0-3,0-4,2s.31,7.81,4,12C1052.84,457.6,1058.4,458,1057.29,448.61Z" transform="translate(-732.89 -384.03)"/><path d="M1128.29,469.61c-4.94-.49-7.43.08-11.85-1.69-3.26-1.3-6.09-5.2-7.64-8.6a6.69,6.69,0,0,1,1.49-6.71c1-.94,6-.61,7.78.61,5.21,3.52,8.52,6.25,17,4.59,11.23-2.2,10.12.05,17.47-5.2,7-5,5-8,3-13-6-8-3.63-14.18-17.24-9-3.82,1.45-8,0-9-3,0-2,.94-5.25,3-6,7.31-2.66,14.28-5.18,21.75-7.41a179.62,179.62,0,0,0,17.25-6.59c1.64-.68,3.71-3.56,4.2-4.37,2.8-4.63-1.56-6.56-3.2-7.63-9.59-6.25-25,2-29,4-1.6.8-8,5-13.21,4.21-3.79-2.21,1.94-9.75,4.21-11.21,13.08-8.42,26.25-11.08,41.18-6,12.86,4.36,15.82,18.37,5.06,27a49.9,49.9,0,0,1-7,5c-4.58,2.51-9.39,3.51-14,6,3.66,3.24,3,4,7,9,7,12,9.76,13,6.76,5-3-7-12-16,1-6,7.5,5.76,11,14,0,23-11.78,9.64-13,10-30,13A97.35,97.35,0,0,1,1128.29,469.61Z" transform="translate(-732.89 -384.03)"/></svg>