<?xml version="1.0" standalone="no"?>
<!DOCTYPE svg PUBLIC "-//W3C//DTD SVG 20010904//EN"
 "http://www.w3.org/TR/2001/REC-SVG-20010904/DTD/svg10.dtd">
<svg version="1.0" xmlns="http://www.w3.org/2000/svg"
 width="908.000000pt" height="908.000000pt" viewBox="0 0 908.000000 908.000000"
 preserveAspectRatio="xMidYMid meet">
<metadata>
Created by potrace 1.14, written by Peter Selinger 2001-2017
</metadata>
<g transform="translate(0.000000,908.000000) scale(0.100000,-0.100000)"
fill="#000000" stroke="none">
<path d="M8390 7644 c-69 -15 -168 -48 -212 -71 -15 -7 -29 -12 -30 -11 -2 2
-17 -7 -35 -20 -17 -12 -36 -22 -41 -22 -22 0 -122 -107 -140 -150 -34 -79
-15 -112 59 -105 26 3 58 9 71 14 13 5 28 10 33 12 6 1 30 14 55 29 135 79
333 148 442 154 91 5 191 -30 243 -84 36 -38 39 -67 10 -117 -30 -51 -71 -82
-145 -112 -30 -12 -64 -26 -75 -32 -23 -10 -222 -79 -245 -84 -32 -7 -278 -93
-301 -105 -13 -8 -25 -13 -26 -12 -2 1 -4 2 -5 1 -2 0 -13 -2 -26 -5 -47 -9
-87 -54 -93 -104 -4 -42 3 -60 35 -79 45 -28 91 -31 151 -9 64 23 90 29 143
32 56 3 73 -14 150 -152 84 -149 91 -178 62 -237 -20 -40 -77 -89 -154 -133
-26 -15 -75 -28 -145 -38 -58 -8 -119 -17 -136 -20 -113 -21 -192 -5 -288 60
-64 44 -90 53 -143 52 -69 -1 -88 -22 -91 -97 -1 -40 3 -61 13 -70 8 -6 14
-17 14 -23 0 -16 85 -103 117 -119 15 -8 48 -18 73 -23 133 -23 407 -17 544
12 12 3 46 9 76 15 194 36 282 79 455 221 94 79 165 178 151 214 -3 8 -2 14 3
14 10 0 6 38 -9 87 -13 41 -60 106 -97 136 -13 10 -29 24 -36 31 -11 11 -86
63 -116 81 -10 6 -12 2 -6 -15 7 -21 43 -81 64 -107 31 -37 76 -167 65 -185
-10 -15 -114 114 -114 140 0 6 -4 12 -9 14 -5 2 -17 17 -27 34 -43 71 -101
150 -122 168 -22 17 -22 19 -5 31 10 7 61 29 113 49 130 52 165 70 246 132
123 93 166 162 170 274 7 170 -126 291 -371 336 -67 13 -252 11 -315 -2z"/>
<path d="M4338 7045 c-1 -2 -39 -6 -83 -9 -71 -6 -127 -12 -280 -32 -61 -8
-92 -13 -185 -30 -47 -9 -96 -18 -110 -20 -14 -2 -36 -7 -50 -11 -39 -10 -43
-11 -70 -16 -196 -39 -511 -144 -707 -237 -96 -45 -260 -135 -273 -150 -3 -3
-25 -18 -50 -35 -92 -60 -225 -186 -308 -292 -38 -47 -122 -177 -122 -188 0
-2 -11 -28 -23 -57 -49 -110 -68 -179 -84 -303 -8 -60 -6 -252 2 -291 4 -16 8
-40 9 -54 6 -46 36 -164 58 -230 12 -36 23 -67 23 -70 1 -3 7 -18 13 -33 7
-16 12 -30 12 -32 0 -15 100 -212 136 -267 24 -38 44 -71 44 -74 0 -3 6 -11
13 -18 7 -8 29 -33 48 -57 86 -109 259 -263 414 -371 159 -110 454 -276 585
-329 140 -56 291 -106 296 -98 3 5 0 9 -5 9 -6 0 -11 5 -11 11 0 7 -6 17 -13
23 -8 6 -46 55 -87 109 -40 53 -77 97 -83 97 -6 0 -8 3 -4 6 3 4 1 12 -6 19
-7 7 -62 64 -123 126 -216 223 -459 557 -574 789 -57 113 -125 297 -122 327 0
2 -6 26 -14 55 -17 64 -16 58 -3 58 6 0 22 -15 37 -32 46 -56 236 -248 245
-248 4 0 5 5 1 11 -9 15 -22 67 -39 154 -13 66 -14 280 -2 330 3 11 10 42 17
69 35 155 191 327 373 412 17 9 44 22 60 30 39 22 137 64 137 60 0 -2 -51 -54
-113 -117 -106 -108 -207 -233 -207 -258 0 -6 -4 -11 -8 -11 -13 0 -62 -115
-84 -199 -15 -60 -20 -110 -20 -236 -1 -189 3 -226 47 -408 16 -68 92 -244
115 -267 3 -3 23 -32 44 -65 34 -53 175 -201 232 -246 29 -23 145 -102 169
-115 11 -7 56 -33 100 -58 70 -41 441 -229 455 -231 8 -1 301 -149 365 -185
33 -18 74 -41 90 -50 17 -9 60 -34 98 -56 37 -21 80 -46 95 -54 33 -18 325
-211 332 -220 3 -3 44 -36 92 -73 47 -37 92 -73 100 -79 7 -7 29 -26 48 -42
19 -15 97 -87 172 -159 139 -132 168 -173 168 -236 0 -67 -216 -201 -350 -217
-25 -3 -137 -7 -250 -9 -113 -2 -227 -5 -255 -5 -46 -1 -176 3 -485 15 -224 9
-397 19 -490 29 -19 3 -71 7 -114 11 -44 4 -88 9 -99 11 -11 2 -45 6 -76 9
-77 9 -112 13 -136 18 -11 3 -42 8 -68 11 -27 4 -59 10 -70 12 -12 3 -35 7
-52 9 -51 7 -175 35 -290 66 -60 16 -118 31 -128 34 -23 5 -217 65 -237 72 -8
3 -24 8 -35 10 -11 1 -29 7 -40 12 -11 6 -121 42 -245 81 -124 39 -232 74
-240 77 -8 4 -42 14 -75 23 -33 10 -115 34 -182 53 -67 20 -132 38 -145 40
-13 2 -30 6 -38 10 -18 6 -146 37 -180 43 -14 2 -36 7 -50 9 -158 32 -230 39
-390 39 -135 0 -263 -8 -279 -19 -4 -2 -21 -7 -37 -10 -167 -31 -389 -136
-489 -232 -71 -69 -89 -93 -123 -164 -29 -61 -35 -79 -48 -158 -3 -18 -8 -43
-11 -55 -10 -41 -11 -312 -2 -361 5 -27 11 -60 14 -73 2 -13 11 -47 20 -77 8
-30 16 -58 16 -62 0 -5 6 -15 13 -23 7 -8 19 -31 26 -50 21 -54 104 -166 165
-224 91 -85 230 -173 347 -218 71 -27 203 -67 242 -73 17 -2 60 -10 96 -17 72
-14 742 -16 1805 -4 325 3 786 8 1025 11 239 2 640 7 890 10 250 2 671 7 935
10 264 3 669 8 900 11 231 3 723 6 1092 8 370 1 676 6 680 10 17 16 -28 34
-102 41 -44 3 -96 8 -115 10 -46 4 -157 14 -228 20 -32 3 -84 7 -117 10 -33 3
-89 7 -125 10 -36 3 -96 7 -135 11 -95 8 -154 12 -261 18 -50 3 -115 8 -143
11 -29 3 -96 8 -149 10 -121 6 -221 13 -292 19 -30 2 -109 7 -175 11 -66 4
-136 8 -155 10 -19 2 -82 7 -140 11 -58 3 -123 7 -145 9 -22 2 -51 4 -65 4
-21 1 -18 4 19 21 24 11 49 20 57 20 8 0 14 4 14 8 0 5 6 9 13 9 11 0 316 118
382 148 17 7 53 23 80 35 306 136 496 290 647 525 53 82 108 188 108 209 0 8
3 16 8 18 12 5 58 156 69 228 2 19 9 53 13 75 5 21 7 107 6 190 -3 139 -6 167
-22 235 -3 14 -8 34 -10 45 -2 12 -12 45 -22 75 -11 30 -21 61 -23 69 -2 8
-23 53 -46 100 -101 207 -240 368 -478 556 -21 17 -46 38 -56 48 -11 9 -23 17
-28 17 -5 0 -16 6 -23 13 -15 15 -170 121 -178 122 -3 0 -17 8 -32 18 -67 42
-88 53 -163 94 -113 61 -383 193 -395 193 -5 0 -10 5 -10 12 0 6 -3 8 -6 5 -4
-4 -19 0 -33 8 -40 22 -160 75 -171 75 -6 0 -10 5 -10 10 0 6 -3 9 -7 8 -21
-4 -509 231 -648 312 -38 22 -78 43 -87 46 -10 4 -18 10 -18 15 0 5 -4 9 -9 9
-6 0 -54 26 -107 58 -54 31 -100 57 -103 58 -3 0 -18 6 -34 14 -42 21 -43 5
-2 -45 40 -50 112 -109 280 -230 60 -44 117 -87 126 -95 9 -8 38 -33 64 -55
99 -82 144 -124 300 -280 178 -178 259 -267 385 -424 77 -96 240 -317 265
-359 6 -9 30 -46 55 -82 111 -161 192 -345 216 -490 2 -14 7 -36 10 -49 12
-54 3 -277 -13 -306 -9 -15 -14 -12 -45 26 -19 24 -55 73 -79 109 -24 36 -50
71 -56 78 -7 7 -13 17 -13 22 0 5 -6 15 -12 22 -17 17 -138 196 -138 203 0 3
-7 13 -15 22 -8 10 -55 77 -105 148 -160 231 -271 361 -446 526 -59 55 -260
209 -273 209 -5 0 -11 4 -13 8 -1 5 -32 29 -67 53 -35 24 -82 57 -105 73 -77
54 -221 153 -401 276 -99 68 -225 155 -280 193 -55 39 -129 91 -165 115 -84
59 -244 175 -250 182 -3 3 -30 25 -60 50 -94 77 -196 188 -225 246 -51 101
-30 185 74 289 l56 56 12 -66 c22 -119 100 -247 222 -365 68 -65 197 -160 219
-160 8 0 4 18 -10 53 -87 215 -97 403 -28 541 43 86 168 182 273 211 4 2 8 3
10 5 1 1 9 3 17 5 83 22 109 27 130 30 14 1 48 6 75 10 86 12 428 6 453 -9 4
-2 32 -7 62 -11 86 -11 130 -19 219 -41 36 -9 73 -18 84 -20 17 -3 138 -31
217 -51 14 -3 31 -7 37 -9 7 -1 63 -15 125 -30 62 -15 120 -28 128 -29 8 -1
22 -5 30 -7 24 -9 375 -91 430 -101 14 -3 54 -12 89 -22 35 -9 76 -18 90 -20
14 -3 53 -12 86 -20 249 -63 389 -49 525 51 71 52 88 89 71 152 -26 100 -95
174 -286 310 -55 40 -105 76 -112 82 -7 5 -16 10 -22 10 -5 0 -11 3 -13 8 -3
7 -209 142 -238 155 -8 4 -28 15 -45 26 -108 67 -408 216 -485 241 -14 5 -61
22 -105 39 -90 35 -264 90 -310 98 -16 3 -38 9 -47 14 -10 5 -18 8 -18 5 0 -2
-19 1 -42 6 -24 5 -56 11 -71 13 -15 2 -47 7 -70 11 -23 3 -55 7 -72 9 -16 1
-61 6 -100 9 -38 4 -101 9 -140 12 -87 6 -742 14 -747 9z m1927 -587 c2 -7 6
-31 9 -53 2 -22 7 -51 10 -65 19 -79 19 -107 -3 -129 -26 -26 -47 -26 -88 -1
-38 23 -64 59 -68 95 -4 37 15 106 34 126 36 37 97 52 106 27z m179 -14 c31
-23 39 -44 42 -108 2 -59 -12 -104 -39 -128 -30 -27 -43 -22 -75 25 -52 78
-67 164 -37 211 15 22 24 26 51 23 17 -3 44 -13 58 -23z m-5307 -3968 c34 -3
83 -11 110 -17 26 -6 55 -12 63 -14 8 -2 42 -11 75 -21 33 -10 62 -19 65 -19
3 -1 14 -5 25 -10 11 -4 49 -19 85 -33 36 -13 98 -39 138 -58 40 -18 76 -34
80 -35 4 -2 61 -29 127 -62 321 -159 622 -283 679 -279 10 0 16 -2 13 -5 -7
-6 -21 -8 -137 -18 -41 -3 -102 -8 -135 -11 -33 -3 -82 -7 -110 -9 -27 -2 -50
-4 -50 -5 0 -1 -31 -3 -70 -5 -38 -2 -92 -7 -118 -10 -26 -3 -85 -8 -130 -11
-45 -3 -100 -7 -122 -9 -42 -4 -175 -14 -260 -20 -27 -2 -86 -7 -130 -10 -196
-16 -294 -12 -445 18 -39 8 -135 43 -188 69 -62 30 -112 105 -146 218 -39 129
-37 170 13 223 21 24 70 57 91 62 3 1 14 5 25 9 84 32 182 56 259 63 33 3 62
6 63 7 3 2 60 -1 130 -8z"/>
</g>
</svg>
